#!OML:ASF G:\ViconDB\ViconDB\414\test\team2\shane.ASF
:FULLY-SPECIFIED
:DEGREES
225
root 10.7547 16.2607 -0.126461 354.867 -5.6658 -5.72331
lowerback 7.78162 -2.14273 0.904833
upperback 3.66325 -2.77296 1.72996
thorax -0.530903 -1.39479 1.4963
lowerneck -25.4671 3.64849 -1.56694
upperneck 19.0354 6.87571 -4.98507
head 10.4368 2.38258 -0.428611
rclavicle 2.34566e-014 -1.31198e-014
rhumerus -44.1634 18.2623 -100.971
rradius 46.6573
rwrist 35.3161
rhand -34.3346 -9.82299
rfingers 7.12502
rthumb -7.50252 -39.6699
lclavicle 2.34566e-014 -1.31198e-014
lhumerus -30.4735 -37.0318 102.562
lradius 24.9481
lwrist -14.5805
lhand -36.3386 7.74398
lfingers 7.12502
lthumb -9.43648 37.5127
rfemur -13.5804 5.06704 21.8402
rtibia 41.1209
rfoot -21.831 1.12273
rtoes -6.70875
lfemur 6.45881 -9.08083 -0.871619
ltibia 33.8112
lfoot -31.1138 1.08549
ltoes -21.793
226
root 10.7127 16.2626 -0.0343549 354.687 -4.63103 -6.02497
lowerback 7.55316 -2.18661 1.32512
upperback 3.53901 -2.80206 1.92335
thorax -0.542436 -1.40565 1.45614
lowerneck -25.1963 3.71624 -1.8305
upperneck 19.3891 7.07238 -4.9289
head 10.5109 2.45236 -0.336309
rclavicle 2.22639e-014 -3.29983e-014
rhumerus -44.5685 17.5666 -100.138
rradius 46.0668
rwrist 37.6833
rhand -34.7383 -10.1047
rfingers 7.12502
rthumb -7.89219 -39.9374
lclavicle 2.22639e-014 -3.29983e-014
lhumerus -29.1192 -35.4239 101.619
lradius 24.3944
lwrist -16.1914
lhand -36.8611 7.59873
lfingers 7.12502
lthumb -9.94067 37.344
rfemur -12.8787 4.10902 22.0677
rtibia 40.9385
rfoot -21.9331 1.42548
rtoes -6.7734
lfemur 6.30744 -9.32426 -0.345318
ltibia 34.2842
lfoot -30.9887 0.534269
ltoes -22.1314
227
root 10.6713 16.2633 0.0564638 354.455 -3.67312 -6.34658
lowerback 7.30377 -2.23908 1.54464
upperback 3.45231 -2.85938 2.13689
thorax -0.492616 -1.43331 1.54899
lowerneck -24.9877 3.82313 -1.66862
upperneck 19.7842 7.25282 -5.18448
head 10.641 2.50355 -0.424698
rclavicle 5.0454e-014 -1.51076e-014
rhumerus -44.9954 17.2523 -99.8127
rradius 46.2432
rwrist 34.7267
rhand -34.3564 -9.43672
rfingers 7.12502
rthumb -7.52359 -39.2829
lclavicle 5.0454e-014 -1.51076e-014
lhumerus -28.1405 -34.192 100.91
lradius 24.1288
lwrist -16.9827
lhand -37.494 7.65936
lfingers 7.12502
lthumb -10.5512 37.3745
rfemur -12.0829 2.67439 22.2638
rtibia 40.7027
rfoot -22.204 2.11638
rtoes -6.82828
lfemur 6.16891 -9.47172 0.201353
ltibia 34.8282
lfoot -30.8023 0.0193322
ltoes -22.3792
228
root 10.6281 16.2677 0.142351 354.197 -2.68941 -6.71643
lowerback 7.1416 -2.22106 1.95555
upperback 3.4322 -2.81191 2.22207
thorax -0.43935 -1.40519 1.39715
lowerneck -24.8969 3.8218 -1.48004
upperneck 20.1669 7.2225 -5.22774
head 10.7738 2.48697 -0.474692
rclavicle -1.25234e-014 -5.1684e-015
rhumerus -45.0233 15.9186 -98.8345
rradius 45.3993
rwrist 37.0556
rhand -35.0015 -10.1284
rfingers 7.12502
rthumb -8.14623 -39.9514
lclavicle -1.25234e-014 -5.1684e-015
lhumerus -26.5915 -31.6709 99.6004
lradius 23.581
lwrist -18.6669
lhand -38.1139 7.46804
lfingers 7.12502
lthumb -11.1492 37.1518
rfemur -11.2705 1.25702 22.5131
rtibia 40.3891
rfoot -22.3803 2.79816
rtoes -6.61034
lfemur 5.90088 -9.35774 0.916485
ltibia 35.4517
lfoot -30.5284 -0.793499
ltoes -22.6764
229
root 10.5908 16.2793 0.226978 353.918 -1.89552 -6.90262
lowerback 6.96988 -2.22345 2.17632
upperback 3.35843 -2.80334 2.36804
thorax -0.423348 -1.39937 1.41795
lowerneck -24.5376 3.84516 -1.75361
upperneck 20.405 7.29064 -4.95125
head 10.7743 2.53182 -0.324745
rclavicle 2.14687e-014 -8.24956e-015
rhumerus -45.4976 15.7328 -98.0832
rradius 45.0801
rwrist 37.6628
rhand -35.1994 -10.4711
rfingers 7.12502
rthumb -8.33722 -40.2866
lclavicle 2.14687e-014 -8.24956e-015
lhumerus -25.8267 -30.0025 98.9928
lradius 23.5443
lwrist -19.2528
lhand -38.8734 7.60205
lfingers 7.12502
lthumb -11.8816 37.2449
rfemur -10.419 -0.00319002 22.5299
rtibia 40.0317
rfoot -22.544 3.68452
rtoes -6.53822
lfemur 5.76817 -9.38978 1.32508
ltibia 36.0876
lfoot -30.2077 -1.4546
ltoes -22.8566
230
root 10.5465 16.2867 0.304243 353.605 -0.902215 -7.06685
lowerback 6.92732 -2.23118 2.27398
upperback 3.3017 -2.80549 2.4597
thorax -0.458122 -1.39991 1.45755
lowerneck -24.471 3.82099 -1.65938
upperneck 20.87 7.26743 -4.98053
head 10.9391 2.50926 -0.352497
rclavicle -4.40432e-015 4.67144e-015
rhumerus -45.6226 15.0579 -97.4052
rradius 44.3871
rwrist 37.4801
rhand -35.506 -10.9732
rfingers 7.12502
rthumb -8.6331 -40.7767
lclavicle -4.40432e-015 4.67144e-015
lhumerus -25.1299 -28.3838 98.432
lradius 23.6129
lwrist -19.3785
lhand -39.5443 7.64878
lfingers 7.12502
lthumb -12.5285 37.2532
rfemur -9.51849 -1.66349 22.5408
rtibia 39.5971
rfoot -22.7456 4.34288
rtoes -6.91825
lfemur 5.44648 -9.26351 1.83216
ltibia 36.7763
lfoot -29.8355 -2.34605
ltoes -23.1949
231
root 10.5062 16.2908 0.383093 353.145 -0.0587054 -7.15125
lowerback 6.80194 -2.19246 2.30518
upperback 3.39316 -2.759 2.55808
thorax -0.291194 -1.37599 1.53034
lowerneck -24.3046 3.75836 -1.78577
upperneck 21.1956 7.20281 -4.81242
head 11.0157 2.48367 -0.282991
rclavicle 3.04544e-014 -3.10104e-014
rhumerus -45.7506 14.8579 -96.7736
rradius 44.0409
rwrist 36.049
rhand -35.3556 -11.2894
rfingers 7.12502
rthumb -8.488 -41.0988
lclavicle 3.04544e-014 -3.10104e-014
lhumerus -24.6481 -27.4788 98.1512
lradius 24.0778
lwrist -19.0182
lhand -40.2965 8.15044
lfingers 7.12502
lthumb -13.2536 37.7091
rfemur -8.42507 -2.78989 22.4964
rtibia 39.1291
rfoot -22.9273 4.683
rtoes -7.04462
lfemur 5.37142 -9.19786 2.17053
ltibia 37.4658
lfoot -29.3989 -3.08635
ltoes -23.4732
232
root 10.461 16.3047 0.456802 352.809 0.821386 -7.19637
lowerback 6.73434 -2.20943 2.17354
upperback 3.37636 -2.79066 2.59514
thorax -0.262852 -1.39328 1.64159
lowerneck -23.9585 3.78049 -1.49659
upperneck 21.4078 7.15375 -4.88506
head 11.0435 2.47633 -0.368295
rclavicle 5.49919e-014 -1.2921e-015
rhumerus -45.8326 14.4867 -96.1859
rradius 43.3409
rwrist 35.5811
rhand -35.364 -12.0436
rfingers 7.12502
rthumb -8.49609 -41.8527
lclavicle 5.49919e-014 -1.2921e-015
lhumerus -24.2388 -25.8473 97.5966
lradius 24.5535
lwrist -19.0501
lhand -41.102 8.58603
lfingers 7.12502
lthumb -14.0299 38.0925
rfemur -7.48176 -3.9037 22.4451
rtibia 38.6495
rfoot -23.1149 4.91318
rtoes -7.03871
lfemur 5.07505 -8.97696 2.53679
ltibia 38.1725
lfoot -28.8765 -3.82746
ltoes -23.613
233
root 10.4106 16.321 0.522316 352.513 1.91535 -7.17393
lowerback 6.82992 -2.25476 1.85503
upperback 3.29583 -2.86208 2.66178
thorax -0.379211 -1.43312 1.8992
lowerneck -23.7278 3.73742 -1.70338
upperneck 21.7835 7.05062 -4.37129
head 11.1056 2.47219 -0.167743
rclavicle 4.35245e-014 -5.22804e-014
rhumerus -45.9441 14.1093 -95.4783
rradius 42.5808
rwrist 35.4948
rhand -35.809 -12.2049
rfingers 7.12502
rthumb -8.92552 -41.9962
lclavicle 4.35245e-014 -5.22804e-014
lhumerus -24.1809 -25.5212 97.4141
lradius 25.2132
lwrist -18.6231
lhand -42.1577 9.19445
lfingers 7.12502
lthumb -15.0471 38.6276
rfemur -6.59978 -4.71252 22.4144
rtibia 38.1922
rfoot -23.199 4.59955
rtoes -7.21995
lfemur 4.63332 -9.01658 2.78522
ltibia 38.9017
lfoot -28.2858 -4.38574
ltoes -23.6928
234
root 10.3669 16.3361 0.589575 352.169 2.83556 -7.09401
lowerback 7.07015 -2.19771 1.86372
upperback 3.14858 -2.7714 2.55246
thorax -0.67184 -1.38664 1.78963
lowerneck -23.5163 3.54064 -1.8768
upperneck 22.3382 6.72941 -3.85404
head 11.2384 2.36626 -0.00452408
rclavicle 1.2042e-014 -1.51076e-014
rhumerus -46.0066 12.8461 -94.6326
rradius 41.9737
rwrist 35.0118
rhand -35.8712 -12.4116
rfingers 7.12502
rthumb -8.98548 -42.2002
lclavicle 1.2042e-014 -1.51076e-014
lhumerus -24.3494 -25.2116 97.2905
lradius 26.1368
lwrist -17.5349
lhand -42.7949 9.5684
lfingers 7.12502
lthumb -15.6609 38.9546
rfemur -5.69085 -5.21283 22.3079
rtibia 37.7576
rfoot -23.2826 4.38781
rtoes -6.84798
lfemur 4.28302 -8.91784 2.95178
ltibia 39.6705
lfoot -27.5603 -4.91998
ltoes -23.7832
235
root 10.3243 16.3457 0.653489 351.885 3.81845 -6.99692
lowerback 6.96642 -2.22729 1.57599
upperback 3.2119 -2.83402 2.56758
thorax -0.533586 -1.4204 1.96427
lowerneck -23.336 3.49259 -1.9595
upperneck 22.5435 6.6084 -3.52329
head 11.2617 2.34566 0.107843
rclavicle 7.70291e-015 5.36719e-015
rhumerus -45.9763 12.9747 -94.1194
rradius 41.4432
rwrist 34.1865
rhand -35.7509 -12.8976
rfingers 7.12502
rthumb -8.86947 -42.6912
lclavicle 7.70291e-015 5.36719e-015
lhumerus -24.2536 -25.4939 97.2034
lradius 27.0694
lwrist -16.2079
lhand -43.4328 9.72576
lfingers 7.12502
lthumb -16.2752 39.0627
rfemur -4.84578 -6.02732 22.1185
rtibia 37.3255
rfoot -23.4431 4.20142
rtoes -7.08005
lfemur 3.80019 -8.69797 3.11404
ltibia 40.5219
lfoot -26.8761 -5.33064
ltoes -23.7558
236
root 10.2827 16.3545 0.710375 351.627 4.76292 -6.96785
lowerback 7.1676 -2.2342 1.55732
upperback 3.14587 -2.83502 2.50912
thorax -0.715129 -1.4201 1.9253
lowerneck -23.2226 3.39077 -1.93421
upperneck 22.9197 6.41062 -3.28076
head 11.3699 2.28136 0.161022
rclavicle 9.61931e-015 7.95139e-015
rhumerus -46.0092 12.9357 -93.8176
rradius 41.2411
rwrist 32.3934
rhand -35.6937 -13.2591
rfingers 7.12502
rthumb -8.81421 -43.0551
lclavicle 9.61931e-015 7.95139e-015
lhumerus -24.5077 -26.2058 97.2375
lradius 28.1758
lwrist -14.2539
lhand -44.2098 9.74009
lfingers 7.12502
lthumb -17.0232 39.0142
rfemur -4.07964 -6.73609 21.9935
rtibia 36.9345
rfoot -23.5611 4.2144
rtoes -6.62934
lfemur 3.27232 -8.43608 3.31223
ltibia 41.4265
lfoot -26.143 -5.49541
ltoes -23.3827
237
root 10.244 16.365 0.769696 351.426 5.70127 -6.9297
lowerback 7.2327 -2.26343 1.41228
upperback 3.08861 -2.87853 2.5309
thorax -0.801052 -1.44277 2.0366
lowerneck -23.0086 3.26301 -2.16574
upperneck 23.1683 6.21645 -2.90138
head 11.3978 2.22036 0.304012
rclavicle -4.26331e-014 3.03147e-014
rhumerus -45.9267 12.139 -92.762
rradius 40.612
rwrist 33.7254
rhand -35.4827 -13.5307
rfingers 7.12502
rthumb -8.61062 -43.3352
lclavicle -4.26331e-014 3.03147e-014
lhumerus -24.7082 -26.5105 97.1033
lradius 29.2414
lwrist -13.9176
lhand -44.6521 10.2347
lfingers 7.12502
lthumb -17.4489 39.4715
rfemur -3.36804 -7.56341 21.8035
rtibia 36.5433
rfoot -23.6384 4.41304
rtoes -6.31073
lfemur 2.645 -8.25361 3.42509
ltibia 42.4148
lfoot -25.3222 -5.55896
ltoes -23.4489
